<svg xmlns="http://www.w3.org/2000/svg" width="512" height="512" viewBox="0 0 512 512">
  <rect width="512" height="512" rx="85" fill="#0f172a"/>
  <g transform="translate(128, 128) scale(1)">
    <path d="M168.21,34.52c-2.36,6.72-10.7,14.28-21.36,19.32-15.91,7.54-38.3,10.7-61.16,10.7-34.58,0-60.1-10.15-74.83-30.45C-4.4,13.23-4.83,0,11.23-9.15,22.1-23,43.43-29.21,65.3-29.21c2.36-6.72,10.7-14.28,21.36-19.32,15.91-7.54,38.3-10.7,61.16-10.7,34.58,0,60.1,10.15,74.83,30.45,15.26,20.86,15.69,33.08-.43,42.23-11.07,13.85-32.4,20.06-54.27,20.06Z" transform="translate(68.5 190)" fill="none" stroke="#38bdf8" stroke-width="20" stroke-linecap="round" stroke-linejoin="round"/>
    <path d="M168.21,34.52c-2.36,6.72-10.7,14.28-21.36,19.32-15.91,7.54-38.3,10.7-61.16,10.7-34.58,0-60.1-10.15-74.83-30.45C-4.4,13.23-4.83,0,11.23-9.15,22.1-23,43.43-29.21,65.3-29.21c2.36-6.72,10.7-14.28,21.36-19.32,15.91-7.54,38.3-10.7,61.16-10.7,34.58,0,60.1,10.15,74.83,30.45,15.26,20.86,15.69,33.08-.43,42.23-11.07,13.85-32.4,20.06-54.27,20.06Z" transform="matrix(1, 0, 0, -1, 68.5, 66)" fill="none" stroke="#38bdf8" stroke-width="20" stroke-linecap="round" stroke-linejoin="round"/>
  </g>
</svg>